<?xml version="1.0" encoding="UTF-8" standalone="no"?>
<svg
   xmlns:dc="http://purl.org/dc/elements/1.1/"
   xmlns:cc="http://creativecommons.org/ns#"
   xmlns:rdf="http://www.w3.org/1999/02/22-rdf-syntax-ns#"
   xmlns:svg="http://www.w3.org/2000/svg"
   xmlns="http://www.w3.org/2000/svg"
   xmlns:xlink="http://www.w3.org/1999/xlink"
   xmlns:sodipodi="http://sodipodi.sourceforge.net/DTD/sodipodi-0.dtd"
   xmlns:inkscape="http://www.inkscape.org/namespaces/inkscape"
   width="100mm"
   height="75mm"
   viewBox="0 0 100 75"
   version="1.1"
   id="svg8"
   sodipodi:docname="jacob.svg"
   inkscape:version="1.0.2 (e86c870879, 2021-01-15, custom)">
  <defs
     id="defs2" />
  <sodipodi:namedview
     id="base"
     pagecolor="#ffffff"
     bordercolor="#666666"
     borderopacity="1.0"
     inkscape:pageopacity="0.0"
     inkscape:pageshadow="2"
     inkscape:zoom="2.8"
     inkscape:cx="210.21349"
     inkscape:cy="186.11717"
     inkscape:document-units="mm"
     inkscape:current-layer="layer1"
     inkscape:document-rotation="0"
     showgrid="false"
     inkscape:window-width="1920"
     inkscape:window-height="986"
     inkscape:window-x="-11"
     inkscape:window-y="-11"
     inkscape:window-maximized="1" />
  <metadata
     id="metadata5">
    <rdf:RDF>
      <cc:Work
         rdf:about="">
        <dc:format>image/svg+xml</dc:format>
        <dc:type
           rdf:resource="http://purl.org/dc/dcmitype/StillImage" />
        <dc:title></dc:title>
      </cc:Work>
    </rdf:RDF>
  </metadata>
  <g
     inkscape:label="Layer 1"
     inkscape:groupmode="layer"
     id="layer1">
    <image
       sodipodi:absref="C:\Users\jacob\Documents\MiniProjects\nextlevelloft\public\main-background.jpg"
       xlink:href="main-background.jpg"
       style="stroke-width:1.73397"
       y="0"
       x="0"
       id="image847"
       preserveAspectRatio="none"
       height="75.000008"
       width="100" />
    <circle
       id="path851"
       style="fill:#000000;stroke:#000000;stroke-width:0.264583"
       cx="9.4494047"
       cy="63.5"
       r="0.094399549" />
    <circle
       id="path853"
       style="fill:#000000;stroke:#000000;stroke-width:0.264583"
       cx="7.1343007"
       cy="52.869419"
       r="0.094399549" />
    <path
       style="fill:none;stroke:#00ff00;stroke-width:0.264583px;stroke-linecap:butt;stroke-linejoin:miter;stroke-opacity:1;opacity:0.999"
       d="m 9.5438988,63.405506 -2.6458333,-10.583333 7.4650295,-6.898066 1.700893,-3.401785 -1.700893,-1.417413 3.49628,-5.102677 5.197172,-0.283482 1.417411,3.590774 -3.307292,6.992559 1.228423,0.755951 1.322917,-0.755951 3.685268,1.228423 4.252232,4.630208 -4.91369,0.661459 -0.566965,6.520087 -3.118304,1.795388 9.071428,3.96875 c 0,0 0.850448,2.267858 0.472472,2.267858 -0.377978,0 -14.174108,-2.173364 -14.174108,-2.173364 z"
       id="vincent" />
    <path
       style="fill:none;stroke:#00ff00;stroke-width:0.264583px;stroke-linecap:butt;stroke-linejoin:miter;stroke-opacity:1"
       d="m 13.607143,28.72619 3.023809,-0.94494 3.401786,2.834822 -2.645833,3.307292 1.35537,0.1535 0.868626,0.701583 -5.044712,3.474503 -0.1086,5.143442 -6.0476189,7.06343 -2.7403274,-2.267858 3.1183037,-9.165923 1.4174106,-3.779761 4.346726,-1.984375 z"
       id="alex">
      <title
         id="title861">alex</title>
    </path>
    <path
       style="fill:none;stroke:#00ff00;stroke-width:0.264583px;stroke-linecap:butt;stroke-linejoin:miter;stroke-opacity:1"
       d="m 20.198102,34.11235 1.842634,-1.299292 0.8032,-2.36235 2.338728,-1.46466 1.370162,0.448847 0.826823,1.630022 c 0,0 -1.771762,3.732516 -1.700892,3.732516 0.07087,0 -0.779576,0.354352 -0.708705,0.472469 0.07087,0.118118 0.755952,0.496094 0.755952,0.496094 l -0.330729,1.889882 -1.535528,-0.968566 z"
       id="liam">
      <title
         id="title865">liam</title>
    </path>
    <path
       style="fill:none;stroke:#00ff00;stroke-width:0.264583px;stroke-linecap:butt;stroke-linejoin:miter;stroke-opacity:1"
       d="m 24.622205,43.297662 1.971113,-7.583773 1.00226,-1.135893 1.904296,-0.567949 0.06682,-0.668174 -1.102487,-0.634764 -0.233862,-2.405425 1.570209,-1.80407 2.505652,0.06682 1.336347,1.30294 -0.267269,2.23838 -0.835218,1.57021 -0.935442,0.935442 1.202713,1.971114 -0.634767,3.57473 -0.434313,0.668173 -0.06681,2.33861 -0.902036,0.868625 -6.046973,-0.567947 z"
       id="dmitri">
      <title
         id="title869">dmitri</title>
    </path>
    <path
       style="fill:none;stroke:#00ff00;stroke-width:0.264583px;stroke-linecap:butt;stroke-linejoin:miter;stroke-opacity:1"
       d="m 31.270535,44.667418 2.071338,-8.886711 2.305201,-0.668173 -0.868627,-1.603616 -0.367496,-2.33861 0.267269,-0.601355 2.405428,-0.267269 1.202711,2.00452 -0.06682,0.801809 -0.400902,0.567947 0.267269,0.668173 3.173825,0.868627 0.567947,3.240643 -0.434311,3.57473 -1.57021,1.637025 -2.53906,0.300678 -3.140417,-0.100224 1.035669,-2.405428 -0.7684,-2.372016 -1.069078,2.639287 -0.03341,1.369756 -0.267269,0.734992 z"
       id="will" />
    <path
       style="fill:none;stroke:#00ff00;stroke-width:0.264583px;stroke-linecap:butt;stroke-linejoin:miter;stroke-opacity:1"
       d="m 41.059282,43.431298 0.968851,-7.216277 1.169305,-0.133636 0.501129,-1.23612 -1.102487,-2.57247 0.03341,-1.102487 1.570209,-0.968851 1.570207,-0.100227 1.670436,2.505652 -1.035669,1.302938 -0.200453,1.035672 2.77292,1.269529 0.835218,3.741774 -1.469982,1.46998 -0.03341,3.641548 z"
       id="jacob" />
    <path
       style="fill:none;stroke:#00ff00;stroke-width:0.264583px;stroke-linecap:butt;stroke-linejoin:miter;stroke-opacity:1"
       d="m 47.573975,30.936448 2.004523,-2.004523 1.737251,0.868627 1.469983,2.605879 2.338607,1.00226 1.403164,2.405425 -0.467719,6.748555 -1.069078,1.536801 3.54132,17.105248 -2.53906,-1.135896 -3.741775,-12.962569 -0.267269,11.024867 -1.603618,-0.601356 -0.46772,-11.960312 -1.271772,-1.653347 0.496093,-8.457215 -0.992187,-0.236236 z"
       id="marley" />
    <path
       style="fill:none;stroke:#00ff00;stroke-width:0.265;stroke-linecap:butt;stroke-linejoin:miter;stroke-opacity:1;stroke-miterlimit:4;stroke-dasharray:none;opacity:0.999"
       d="m 48.522694,66.760044 -2.173365,-5.055431 -0.188986,-1.984375 2.69308,-1.937128 9.449403,4.771948 5.055433,-2.126115 6.425594,-13.040179 4.677455,-3.354539 -1.653646,-2.126115 -1.842632,-0.330729 -0.519718,-4.441222 1.322916,-3.63802 2.315104,-1.700893 4.063244,0.519719 2.834822,2.267857 2.173362,8.409969 4.630208,3.874257 1.417413,5.575149 -2.929316,9.591146 -22.53683,-1.27567 -5.433409,2.126115 0.141742,3.543527 -10.205357,0.330729 z"
       id="dhruvik" />
    <path
       style="fill:none;stroke:#00fc00;stroke-width:0.264583px;stroke-linecap:butt;stroke-linejoin:miter;stroke-opacity:1"
       d="M 63.342876,57.930668 62.54107,47.039437 61.004269,46.504896 60.603365,44.36674 l -0.467723,-7.216277 1.33635,-5.612659 2.672694,-1.069078 0.334086,-1.937705 -1.403164,-2.873147 0.868627,-1.737252 2.472242,-0.06682 1.403165,2.071339 0.133633,1.336348 -0.801806,0.334086 4.81085,3.474503 -2.739512,8.018087 1.069078,6.882191 -2.739512,4.877668 -0.801809,-4.610399 -1.269532,9.020346 z"
       id="ved" />
    <path
       style="fill:none;stroke:#00ff00;stroke-width:0.264583px;stroke-linecap:butt;stroke-linejoin:miter;stroke-opacity:1"
       d="m 73.69957,29.600099 1.737254,-1.135894 -2.338609,-1.870887 -0.734992,-1.603617 0.601358,-2.138157 c 1.981927,-1.880898 3.04204,-0.535441 4.543582,-0.734991 0.433366,1.373492 1.13298,2.419294 0.467722,5.144939 1.236067,1.899616 3.489366,2.055406 5.278572,3.006783 l 1.536801,7.617179 -1.269532,3.674957 -2.405425,-7.817633 -5.211757,-2.706106 -3.875407,1.670437 0.233859,-2.33861 z"
       id="noah"
       sodipodi:nodetypes="ccccccccccccccc">
      <title
         id="title883">noah</title>
    </path>
    <path
       style="fill:none;stroke:#00ff00;stroke-width:0.264583px;stroke-linecap:butt;stroke-linejoin:miter;stroke-opacity:1"
       d="m 41.927906,73.69957 c -0.701582,0.267272 -5.211754,-0.367493 -5.211754,-0.367493 -1.431319,-5.977963 3.964832,-6.799008 10.824414,-6.514695 l 3.307461,0.46772 c 0,0 0,5.11153 0.167044,5.044712 0.167042,-0.06682 -2.572469,0.06682 -2.572469,0.06682 l 0.868624,1.169305 -0.200451,1.369756 -7.116051,-0.03341 z"
       id="headphones"
       sodipodi:nodetypes="ccccsccccc">
      <title
         id="title887">headphones</title>
    </path>
  </g>
</svg>
